<?xml version="1.0" standalone="no"?>
<!DOCTYPE svg PUBLIC "-//W3C//DTD SVG 20010904//EN"
 "http://www.w3.org/TR/2001/REC-SVG-20010904/DTD/svg10.dtd">
<svg version="1.0" xmlns="http://www.w3.org/2000/svg"
 width="32.000000pt" height="32.000000pt" viewBox="0 0 32.000000 32.000000"
 preserveAspectRatio="xMidYMid meet">

<g transform="translate(0.000000,32.000000) scale(0.100000,-0.100000)"
fill="#000000" stroke="none">
<path d="M114 270 c-11 -4 -33 -22 -47 -40 -50 -59 -25 -155 48 -186 44 -18
59 -18 101 2 42 20 64 59 64 114 0 87 -84 143 -166 110z m109 -44 c22 -10 36
-22 33 -29 -3 -7 -9 -20 -12 -29 -4 -10 -16 -18 -29 -18 -13 0 -30 -3 -39 -6
-13 -5 -16 2 -16 35 0 23 -4 41 -10 41 -5 0 -10 -17 -10 -37 -1 -33 -2 -35
-12 -19 -10 18 -11 18 -24 2 -14 -20 -36 -13 -27 9 3 8 0 15 -6 15 -6 0 -11 7
-11 16 0 13 7 15 35 10 22 -5 35 -3 35 4 0 10 39 30 50 26 3 -2 22 -10 43 -20z
m-39 -122 c9 -4 21 -14 26 -24 9 -16 4 -18 -45 -19 -38 0 -55 4 -55 12 0 30
37 45 74 31z"/>
</g>
</svg>
